<svg width="56" height="56" viewBox="0 0 56 56" fill="none" xmlns="http://www.w3.org/2000/svg">
<path d="M56 28H46.6667C46.6667 17.6904 38.3077 9.33333 28 9.33333C17.6904 9.33333 9.33333 17.6904 9.33333 28C9.33333 38.3096 17.6904 46.6667 28 46.6667V56C12.5347 56 0 43.4635 0 28C0 12.5365 12.5347 0 28 0C43.4635 0 56 12.5365 56 28Z" fill="#FDBE0F"/>
<path d="M46.6667 28.0001C46.6667 38.3097 38.3077 46.6667 28 46.6667V37.3334C33.1539 37.3334 37.3333 33.1539 37.3333 28.0001H46.6667Z" fill="#FDBE0F"/>
<path d="M37.3337 28H28.0003V37.3334C22.8465 37.3334 18.667 33.1539 18.667 28C18.667 22.8462 22.8465 18.6667 28.0003 18.6667C33.1542 18.6667 37.3337 22.8462 37.3337 28Z" fill="#FDBE0F"/>
</svg>
